<?xml version="1.0" encoding="UTF-8" standalone="no"?>
<!DOCTYPE svg PUBLIC "-//W3C//DTD SVG 1.1//EN" "http://www.w3.org/Graphics/SVG/1.1/DTD/svg11.dtd">
<!-- Created with Vectornator (http://vectornator.io/) -->
<svg height="100%" stroke-miterlimit="10" style="fill-rule:nonzero;clip-rule:evenodd;stroke-linecap:round;stroke-linejoin:round;" version="1.1" viewBox="0 0 1024 1024" width="100%" xml:space="preserve" xmlns="http://www.w3.org/2000/svg" xmlns:vectornator="http://vectornator.io" xmlns:xlink="http://www.w3.org/1999/xlink">
<defs/>
<path d="M0 0L1024 0L1024 1024L0 1024L0 0Z" fill="#ffffff" fill-rule="nonzero" opacity="1" stroke="none"/>
<g id="Background" vectornator:layerName="Background">
<path d="M0 0L1024 0L1024 1024L0 1024L0 0Z" fill="#872f95" fill-rule="nonzero" opacity="1" stroke="none" vectornator:layerName="Rectangle 1"/>
</g>
<g id="Text" vectornator:layerName="Text">
<path d="M495.265 368.632L753.468 368.632C804.51 368.632 845.656 383.02 876.906 411.796C908.156 440.572 923.781 481.001 923.781 533.085C923.781 577.876 909.849 616.874 881.984 650.077C854.119 683.28 811.281 699.882 753.468 699.882L573 699.882L573 942.46L495.265 942.46L495.265 368.632ZM845.265 533.475C845.265 491.288 829.64 462.642 798.39 447.538C781.203 439.465 757.635 435.428 727.687 435.428L573 435.428L573 634.257L727.687 634.257C762.583 634.257 790.903 626.835 812.648 611.991C834.393 597.147 845.265 570.975 845.265 533.475Z" fill="#dddddd" opacity="1" stroke="none" vectornator:layerName="Headline"/>
<g fill="#ffffff" opacity="1" stroke="none" vectornator:layerName="Title">
<path d="M25.6872 54.2714L43.4997 54.2714L69.8747 131.896L96.0622 54.2714L113.687 54.2714L113.687 146.084L101.875 146.084L101.875 91.8964C101.875 90.0214 101.916 86.9172 102 82.5839C102.083 78.2506 102.125 73.6047 102.125 68.6464L75.9372 146.084L63.6247 146.084L37.2497 68.6464L37.2497 71.4589C37.2497 73.7089 37.3017 77.136 37.4059 81.7402C37.5101 86.3443 37.5622 89.7297 37.5622 91.8964L37.5622 146.084L25.6872 146.084L25.6872 54.2714Z"/>
<path d="M131.437 79.1464L142.125 79.1464L142.125 90.7089C143 88.4589 145.145 85.7193 148.562 82.4902C151.979 79.261 155.916 77.6464 160.375 77.6464C160.583 77.6464 160.937 77.6672 161.437 77.7089C161.937 77.7506 162.791 77.8339 164 77.9589L164 89.8339C163.333 89.7089 162.718 89.6256 162.156 89.5839C161.593 89.5422 160.979 89.5214 160.312 89.5214C154.645 89.5214 150.291 91.3443 147.25 94.9902C144.208 98.636 142.687 102.834 142.687 107.584L142.687 146.084L131.437 146.084L131.437 79.1464Z"/>
<path d="M174.937 54.2714L192.75 54.2714L219.125 131.896L245.312 54.2714L262.937 54.2714L262.937 146.084L251.125 146.084L251.125 91.8964C251.125 90.0214 251.166 86.9172 251.25 82.5839C251.333 78.2506 251.375 73.6047 251.375 68.6464L225.187 146.084L212.875 146.084L186.5 68.6464L186.5 71.4589C186.5 73.7089 186.552 77.136 186.656 81.7402C186.76 86.3443 186.812 89.7297 186.812 91.8964L186.812 146.084L174.937 146.084L174.937 54.2714Z"/>
<path d="M289 128.271C289 131.521 290.187 134.084 292.562 135.959C294.937 137.834 297.75 138.771 301 138.771C304.958 138.771 308.791 137.855 312.5 136.021C318.75 132.98 321.875 128.001 321.875 121.084L321.875 112.021C320.5 112.896 318.729 113.626 316.562 114.209C314.395 114.792 312.27 115.209 310.187 115.459L303.375 116.334C299.291 116.876 296.229 117.73 294.187 118.896C290.729 120.855 289 123.98 289 128.271ZM316.25 105.521C318.833 105.188 320.562 104.105 321.437 102.271C321.937 101.271 322.187 99.8339 322.187 97.9589C322.187 94.1256 320.823 91.3443 318.093 89.6152C315.364 87.886 311.458 87.0214 306.375 87.0214C300.5 87.0214 296.333 88.6047 293.875 91.7714C292.5 93.5214 291.604 96.1256 291.187 99.5839L280.687 99.5839C280.895 91.3339 283.573 85.5943 288.718 82.3652C293.864 79.136 299.833 77.5214 306.625 77.5214C314.5 77.5214 320.895 79.0214 325.812 82.0214C330.687 85.0214 333.125 89.6881 333.125 96.0214L333.125 134.584C333.125 135.751 333.364 136.688 333.843 137.396C334.323 138.105 335.333 138.459 336.875 138.459C337.375 138.459 337.937 138.428 338.562 138.365C339.187 138.303 339.854 138.209 340.562 138.084L340.562 146.396C338.812 146.896 337.479 147.209 336.562 147.334C335.645 147.459 334.395 147.521 332.812 147.521C328.937 147.521 326.125 146.146 324.375 143.396C323.458 141.938 322.812 139.876 322.437 137.209C320.145 140.209 316.854 142.813 312.562 145.021C308.27 147.23 303.541 148.334 298.375 148.334C292.166 148.334 287.093 146.448 283.156 142.678C279.218 138.907 277.25 134.188 277.25 128.521C277.25 122.313 279.187 117.501 283.062 114.084C286.937 110.667 292.02 108.563 298.312 107.771L316.25 105.521Z"/>
<path d="M353.812 60.4589L365.187 60.4589L365.187 79.1464L375.875 79.1464L375.875 88.3339L365.187 88.3339L365.187 132.021C365.187 134.355 365.979 135.917 367.562 136.709C368.437 137.167 369.895 137.396 371.937 137.396C372.479 137.396 373.062 137.386 373.687 137.365C374.312 137.344 375.041 137.292 375.875 137.209L375.875 146.084C374.583 146.459 373.239 146.73 371.843 146.896C370.448 147.063 368.937 147.146 367.312 147.146C362.062 147.146 358.5 145.803 356.625 143.115C354.75 140.428 353.812 136.938 353.812 132.646L353.812 88.3339L344.75 88.3339L344.75 79.1464L353.812 79.1464L353.812 60.4589Z"/>
<path d="M428.625 80.0214L441.687 80.0214L441.687 93.6464L428.625 93.6464L428.625 80.0214ZM428.625 132.459L441.687 132.459L441.687 146.084L428.625 146.084L428.625 132.459Z"/>
<path d="M464.187 80.0214L477.25 80.0214L477.25 93.6464L464.187 93.6464L464.187 80.0214ZM464.187 132.459L477.25 132.459L477.25 146.084L464.187 146.084L464.187 132.459Z"/>
<path d="M26.3122 208.271L38.8747 208.271L38.8747 246.209L86.6247 246.209L86.6247 208.271L99.1872 208.271L99.1872 300.084L86.6247 300.084L86.6247 257.146L38.8747 257.146L38.8747 300.084L26.3122 300.084L26.3122 208.271Z"/>
<path d="M144.812 231.646C149.562 231.646 154.166 232.761 158.625 234.99C163.083 237.219 166.479 240.105 168.812 243.646C171.062 247.021 172.562 250.959 173.312 255.459C173.979 258.542 174.312 263.459 174.312 270.209L125.25 270.209C125.458 277.001 127.062 282.448 130.062 286.553C133.062 290.657 137.708 292.709 144 292.709C149.875 292.709 154.562 290.771 158.062 286.896C160.062 284.646 161.479 282.042 162.312 279.084L173.375 279.084C173.083 281.542 172.114 284.282 170.468 287.303C168.823 290.323 166.979 292.792 164.937 294.709C161.52 298.042 157.291 300.292 152.25 301.459C149.541 302.126 146.479 302.459 143.062 302.459C134.729 302.459 127.666 299.428 121.875 293.365C116.083 287.303 113.187 278.813 113.187 267.896C113.187 257.146 116.104 248.417 121.937 241.709C127.77 235.001 135.395 231.646 144.812 231.646ZM162.75 261.271C162.291 256.396 161.229 252.501 159.562 249.584C156.479 244.167 151.333 241.459 144.125 241.459C138.958 241.459 134.625 243.323 131.125 247.053C127.625 250.782 125.77 255.521 125.562 261.271L162.75 261.271Z"/>
<path d="M188.437 208.271L199.687 208.271L199.687 300.084L188.437 300.084L188.437 208.271Z"/>
<path d="M216.875 208.271L228.125 208.271L228.125 300.084L216.875 300.084L216.875 208.271Z"/>
<path d="M271.562 292.834C279.02 292.834 284.135 290.011 286.906 284.365C289.677 278.719 291.062 272.438 291.062 265.521C291.062 259.271 290.062 254.188 288.062 250.271C284.895 244.105 279.437 241.021 271.687 241.021C264.812 241.021 259.812 243.646 256.687 248.896C253.562 254.146 252 260.48 252 267.896C252 275.021 253.562 280.959 256.687 285.709C259.812 290.459 264.77 292.834 271.562 292.834ZM272 231.209C280.625 231.209 287.916 234.084 293.875 239.834C299.833 245.584 302.812 254.042 302.812 265.209C302.812 276.001 300.187 284.917 294.937 291.959C289.687 299.001 281.541 302.521 270.5 302.521C261.291 302.521 253.979 299.407 248.562 293.178C243.145 286.948 240.437 278.584 240.437 268.084C240.437 256.834 243.291 247.876 249 241.209C254.708 234.542 262.375 231.209 272 231.209Z"/>
<path d="M354.437 208.271L395.75 208.271C403.916 208.271 410.5 210.573 415.5 215.178C420.5 219.782 423 226.251 423 234.584C423 241.751 420.77 247.99 416.312 253.303C411.854 258.615 405 261.271 395.75 261.271L366.875 261.271L366.875 300.084L354.437 300.084L354.437 208.271ZM410.437 234.646C410.437 227.896 407.937 223.313 402.937 220.896C400.187 219.605 396.416 218.959 391.625 218.959L366.875 218.959L366.875 250.771L391.625 250.771C397.208 250.771 401.739 249.584 405.218 247.209C408.698 244.834 410.437 240.646 410.437 234.646Z"/>
<path d="M478.937 233.146L491.375 233.146C489.791 237.438 486.27 247.23 480.812 262.521C476.729 274.021 473.312 283.396 470.562 290.646C464.062 307.73 459.479 318.146 456.812 321.896C454.145 325.646 449.562 327.521 443.062 327.521C441.479 327.521 440.26 327.459 439.406 327.334C438.552 327.209 437.5 326.98 436.25 326.646L436.25 316.396C438.208 316.938 439.625 317.271 440.5 317.396C441.375 317.521 442.145 317.584 442.812 317.584C444.895 317.584 446.427 317.24 447.406 316.553C448.385 315.865 449.208 315.021 449.875 314.021C450.083 313.688 450.833 311.98 452.125 308.896C453.416 305.813 454.354 303.521 454.937 302.021L430.187 233.146L442.937 233.146L460.875 287.646L478.937 233.146Z"/>
<path d="M503.375 214.459L514.75 214.459L514.75 233.146L525.437 233.146L525.437 242.334L514.75 242.334L514.75 286.021C514.75 288.355 515.541 289.917 517.125 290.709C518 291.167 519.458 291.396 521.5 291.396C522.041 291.396 522.625 291.386 523.25 291.365C523.875 291.344 524.604 291.292 525.437 291.209L525.437 300.084C524.145 300.459 522.802 300.73 521.406 300.896C520.01 301.063 518.5 301.146 516.875 301.146C511.625 301.146 508.062 299.803 506.187 297.115C504.312 294.428 503.375 290.938 503.375 286.646L503.375 242.334L494.312 242.334L494.312 233.146L503.375 233.146L503.375 214.459Z"/>
<path d="M536.687 207.959L547.937 207.959L547.937 242.209C550.604 238.834 553 236.459 555.125 235.084C558.75 232.709 563.27 231.521 568.687 231.521C578.395 231.521 584.979 234.917 588.437 241.709C590.312 245.417 591.25 250.563 591.25 257.146L591.25 300.084L579.687 300.084L579.687 257.896C579.687 252.98 579.062 249.376 577.812 247.084C575.77 243.417 571.937 241.584 566.312 241.584C561.645 241.584 557.416 243.188 553.625 246.396C549.833 249.605 547.937 255.667 547.937 264.584L547.937 300.084L536.687 300.084L536.687 207.959Z"/>
<path d="M634.437 292.834C641.895 292.834 647.01 290.011 649.781 284.365C652.552 278.719 653.937 272.438 653.937 265.521C653.937 259.271 652.937 254.188 650.937 250.271C647.77 244.105 642.312 241.021 634.562 241.021C627.687 241.021 622.687 243.646 619.562 248.896C616.437 254.146 614.875 260.48 614.875 267.896C614.875 275.021 616.437 280.959 619.562 285.709C622.687 290.459 627.645 292.834 634.437 292.834ZM634.875 231.209C643.5 231.209 650.791 234.084 656.75 239.834C662.708 245.584 665.687 254.042 665.687 265.209C665.687 276.001 663.062 284.917 657.812 291.959C652.562 299.001 644.416 302.521 633.375 302.521C624.166 302.521 616.854 299.407 611.437 293.178C606.02 286.948 603.312 278.584 603.312 268.084C603.312 256.834 606.166 247.876 611.875 241.209C617.583 234.542 625.25 231.209 634.875 231.209Z"/>
<path d="M679.062 233.146L689.75 233.146L689.75 242.646C692.916 238.73 696.27 235.917 699.812 234.209C703.354 232.501 707.291 231.646 711.625 231.646C721.125 231.646 727.541 234.959 730.875 241.584C732.708 245.209 733.625 250.396 733.625 257.146L733.625 300.084L722.187 300.084L722.187 257.896C722.187 253.813 721.583 250.521 720.375 248.021C718.375 243.855 714.75 241.771 709.5 241.771C706.833 241.771 704.645 242.042 702.937 242.584C699.854 243.501 697.145 245.334 694.812 248.084C692.937 250.292 691.718 252.573 691.156 254.928C690.593 257.282 690.312 260.646 690.312 265.021L690.312 300.084L679.062 300.084L679.062 233.146Z"/>
</g>
</g>
</svg>
